:SAMPLES-PER-SECOND 30
:FRAME-RANGE 1-3535
:FULLY-SPECIFIED
:DEGREES
1658
root  34.4429 38.0395 -11.3743 9.95831 57.301 15.3946
RightUpLeg  -3.81571 13.4055 -15.2702
RightLeg  54.8897 -0.748944 -1.55151
RightFoot  -1.31994 -1.56461 17.6129
RightToes  1.22775e-009 1.2921e-014 -6.02303e-014
Spine  12.3436 1.32834 -5.78288
Spine1  2.47065 0.27923 -1.2523
HEad  -9.63104 -54.1426 15.3477
LeftShoulder1  1.56737 -0.994678 -28.7635
LeftArm  -2.0561 18.5401 -30.8216
LeftForeArm  14.8324 3.65343 -17.5162
LeftHand  0.372984 -1.12212 -6.56928
RightShoulder  11.2421 14.7336 53.8657
RightArm  18.0174 5.26845 17.405
RightForeArm  44.9443 73.442 34.8892
RightHand  0.0960521 4.7498 0.80293
LeftUpLeg  -16.7428 17.7175 -4.71268
LeftLeg  27.1151 -1.90939 -0.700934
LeftFoot  -5.47617 0.252637 -4.28952
LeftToes  2.52163e-011 5.65494e-011 -1.09494e-012
1659
root  35.7651 38.0517 -11.3832 10.035 56.6194 16.2271
RightUpLeg  -9.05927 13.3884 -15.7551
RightLeg  62.9804 -2.11652 -5.06744
RightFoot  3.47276 -1.57675 12.2692
RightToes  1.22775e-009 1.2921e-014 -6.02303e-014
Spine  12.669 1.16088 -7.51028
Spine1  2.272 -0.321226 -0.909662
HEad  -7.22907 -52.9243 13.1081
LeftShoulder1  1.56676 -0.983652 -28.837
LeftArm  -5.30791 14.8633 -32.3111
LeftForeArm  16.3476 0.834891 -16.7062
LeftHand  0.350696 -1.26912 -6.01914
RightShoulder  10.5866 13.7689 53.5772
RightArm  20.2512 4.08691 17.2893
RightForeArm  33.1094 65.1863 21.4059
RightHand  0.13104 5.18148 1.12781
LeftUpLeg  -14.4029 18.0983 -5.69777
LeftLeg  28.0586 -1.61413 -0.563735
LeftFoot  -8.31854 0.155625 -4.00695
LeftToes  2.52163e-011 5.65494e-011 -1.09494e-012
1660
root  37.083 38.2736 -11.3594 8.93681 56.708 15.4112
RightUpLeg  -13.0621 11.8985 -14.8196
RightLeg  66.4237 -2.27351 -6.36487
RightFoot  1.10658 -1.34598 12.3671
RightToes  1.22775e-009 1.2921e-014 -6.02303e-014
Spine  13.0339 0.534934 -7.7841
Spine1  1.69735 -1.13821 -0.481354
HEad  -5.93135 -52.4212 12.0172
LeftShoulder1  1.61065 -1.10182 -28.8967
LeftArm  -2.4656 11.1869 -33.7041
LeftForeArm  13.5201 -4.3366 -15.8371
LeftHand  0.289582 -1.5124 -4.75177
RightShoulder  9.83741 12.5242 53.6559
RightArm  21.8546 3.18442 16.8037
RightForeArm  30.7083 56.9909 14.6749
RightHand  0.0718162 6.35831 0.367043
LeftUpLeg  -11.2943 18.28 -5.64434
LeftLeg  26.9927 -1.6449 -0.540887
LeftFoot  -9.97989 0.10129 -3.48826
LeftToes  2.52163e-011 5.65494e-011 -1.09494e-012
1661
root  38.3842 38.496 -11.276 7.92572 57.1508 14.2007
RightUpLeg  -16.6409 9.44266 -12.9796
RightLeg  66.3055 -2.73374 -7.46257
RightFoot  0.233875 -1.34335 13.2152
RightToes  1.22775e-009 1.2921e-014 -6.02303e-014
Spine  12.8902 -0.122316 -8.13087
Spine1  1.50175 -2.02971 0.658357
HEad  -6.26384 -52.2789 12.0955
LeftShoulder1  1.66479 -1.28102 -28.7166
LeftArm  3.36761 7.64839 -35.4141
LeftForeArm  9.42297 -10.7931 -13.4096
LeftHand  0.223777 -1.98509 -3.36457
RightShoulder  8.75236 10.8618 53.2853
RightArm  22.689 1.51997 15.4175
RightForeArm  29.0291 53.4673 12.8041
RightHand  0.0272603 6.62273 -0.084581
LeftUpLeg  -8.44308 17.5303 -5.32193
LeftLeg  25.5018 -1.19951 -0.455355
LeftFoot  -11.3758 0.0672475 -3.16823
LeftToes  2.52163e-011 5.65494e-011 -1.09494e-012
1662
root  39.7004 38.7535 -11.1497 7.25317 57.6284 13.0986
RightUpLeg  -19.4509 6.40678 -10.7184
RightLeg  62.6596 -3.27485 -7.40272
RightFoot  -1.49391 -1.1089 12.7048
RightToes  1.22775e-009 1.2921e-014 -6.02303e-014
Spine  12.2659 -0.820718 -8.66563
Spine1  1.57397 -2.9555 2.36257
HEad  -7.69918 -51.9687 12.9496
LeftShoulder1  1.70093 -1.45831 -28.1913
LeftArm  11.9694 4.68473 -37.0326
LeftForeArm  3.16495 -17.8831 -8.6009
LeftHand  0.171152 -2.61036 -2.28395
RightShoulder  7.17299 8.53918 52.141
RightArm  23.1183 -0.338037 14.0098
RightForeArm  26.0926 53.8221 13.2479
RightHand  0.0628587 6.29691 0.283502
LeftUpLeg  -5.24789 14.8173 -4.87843
LeftLeg  22.9017 1.13981 -0.666163
LeftFoot  -12.1905 0.0514074 -2.92477
LeftToes  2.52163e-011 5.65494e-011 -1.09494e-012
1663
root  41.0018 38.9805 -10.9889 6.66342 57.7136 11.9163
RightUpLeg  -21.3447 3.1759 -8.06369
RightLeg  55.6914 -4.45997 -7.40664
RightFoot  -2.72289 -0.997991 12.9455
RightToes  1.22775e-009 1.2921e-014 -6.02303e-014
Spine  11.5653 -1.58857 -8.96211
Spine1  1.3096 -3.78538 3.69571
HEad  -8.64438 -51.1041 13.3686
LeftShoulder1  1.72976 -1.65745 -27.4081
LeftArm  13.9571 2.55195 -37.4694
LeftForeArm  3.1152 -23.7816 -4.92207
LeftHand  0.153391 -3.09736 -1.87189
RightShoulder  5.60679 6.23491 50.447
RightArm  23.3452 -2.28142 13.0195
RightForeArm  23.6954 55.4596 14.3942
RightHand  0.0510194 5.61137 0.215834
LeftUpLeg  -2.04969 11.2551 -4.56654
LeftLeg  19.766 4.66575 -1.12469
LeftFoot  -12.6625 0.0457494 -2.61637
LeftToes  2.52163e-011 5.65494e-011 -1.09494e-012
1664
root  42.3037 39.1504 -10.7952 6.05756 57.2679 10.7847
RightUpLeg  -21.8381 0.118594 -5.03809
RightLeg  45.6196 -6.79638 -7.68031
RightFoot  -3.27243 -0.95463 13.1632
RightToes  1.22775e-009 1.2921e-014 -6.02303e-014
Spine  10.7526 -2.38878 -8.93927
Spine1  1.26095 -4.50423 4.58177
HEad  -9.49137 -50.1753 13.768
LeftShoulder1  1.72159 -1.74961 -26.6411
LeftArm  8.01442 0.822564 -36.4517
LeftForeArm  10.7133 -28.9995 -5.70444
LeftHand  0.145709 -3.3968 -1.6843
RightShoulder  4.41283 4.48266 48.4382
RightArm  23.2649 -4.22575 12.5171
RightForeArm  22.7356 56.8879 15.3795
RightHand  -0.00462608 5.12397 -0.358491
LeftUpLeg  1.31784 8.29651 -4.83166
LeftLeg  16.1709 8.15965 -1.2592
LeftFoot  -12.9474 0.0414191 -2.58282
LeftToes  2.52163e-011 5.65494e-011 -1.09494e-012
1665
root  43.5716 39.2311 -10.5384 5.79253 56.3782 10.0396
RightUpLeg  -20.8717 -3.95446 -1.65749
RightLeg  32.683 -10.5499 -7.44138
RightFoot  -3.54814 -0.948341 13.508
RightToes  1.22775e-009 1.2921e-014 -6.02303e-014
Spine  9.82079 -3.03853 -9.18837
Spine1  1.33647 -5.11312 5.47719
HEad  -9.95401 -49.4841 13.8768
LeftShoulder1  1.71053 -1.79322 -26.1454
LeftArm  4.10378 -0.610245 -34.5833
LeftForeArm  14.9046 -33.9765 -6.71177
LeftHand  0.151324 -3.45704 -1.73025
RightShoulder  3.47121 2.97262 46.9916
RightArm  22.9649 -5.39855 11.7467
RightForeArm  22.8986 57.4482 15.737
RightHand  -0.0402412 4.98681 -0.752919
LeftUpLeg  4.53028 7.2126 -5.48121
LeftLeg  12.787 10.1609 -1.25059
LeftFoot  -13.1939 0.034275 -2.77181
LeftToes  2.52163e-011 5.65494e-011 -1.09494e-012
1666
root  44.857 39.1957 -10.2108 5.60789 55.3285 9.32787
RightUpLeg  -18.5582 -11.1948 2.74599
RightLeg  17.4929 -11.2577 -4.1449
RightFoot  -3.26474 -0.928704 12.7886
RightToes  1.22775e-009 1.2921e-014 -6.02303e-014
Spine  8.59248 -3.64146 -9.22008
Spine1  1.65627 -5.67336 6.14257
HEad  -9.90211 -49.1182 13.4171
LeftShoulder1  1.69188 -1.79156 -25.7899
LeftArm  1.24787 -1.7825 -32.6524
LeftForeArm  16.9582 -37.61 -7.59385
LeftHand  0.159148 -3.4374 -1.85054
RightShoulder  2.80642 1.84482 46.0095
RightArm  22.3462 -6.34339 10.7182
RightForeArm  23.2025 57.4893 15.7348
RightHand  -0.0654025 4.9292 -1.03638
LeftUpLeg  7.29629 6.95339 -6.09017
LeftLeg  10.3714 11.5212 -1.19591
LeftFoot  -14.0223 0.0062474 -3.32385
LeftToes  2.52163e-011 5.65494e-011 -1.09494e-012
1667
root  46.1868 39.0074 -9.81899 5.83902 53.9611 9.30962
RightUpLeg  -15.5374 -9.54632 2.90309
RightLeg  5.7295 -20.2943 3.31974
RightFoot  -0.345245 -0.773211 7.99548
RightToes  1.22775e-009 1.2921e-014 -6.02303e-014
Spine  7.23638 -4.06655 -9.2834
Spine1  1.87832 -6.02892 6.36156
HEad  -9.38687 -49.2639 12.8442
LeftShoulder1  1.72537 -1.93895 -25.5312
LeftArm  -0.76166 -2.46509 -30.9868
LeftForeArm  17.6695 -39.6696 -8.16559
LeftHand  0.160024 -3.3617 -1.88381
RightShoulder  2.22645 0.810025 45.2801
RightArm  21.3709 -7.07468 9.96745
RightForeArm  22.5705 56.6494 15.2402
RightHand  -0.103604 4.77338 -1.47864
LeftUpLeg  9.56753 6.76747 -7.09911
LeftLeg  9.61792 12.9432 -1.10218
LeftFoot  -15.5492 -0.0612075 -4.20076
LeftToes  2.52163e-011 5.65494e-011 -1.09494e-012
1668
root  47.4807 38.7609 -9.37994 5.84543 52.2015 9.25781
RightUpLeg  -13.7772 -6.23185 3.21766
RightLeg  0.183466 -33.3754 9.06283
RightFoot  0.490081 0.638731 -6.12123
RightToes  1.22775e-009 1.2921e-014 -6.02303e-014
Spine  6.42 -4.16569 -9.23856
Spine1  2.01276 -6.17023 6.66642
HEad  -8.89332 -48.9786 11.9462
LeftShoulder1  1.68218 -1.81973 -25.4245
LeftArm  -2.06432 -3.11729 -29.8268
LeftForeArm  17.8318 -40.2807 -8.34561
LeftHand  0.148204 -3.30616 -1.74196
RightShoulder  1.6835 -0.214437 44.9726
RightArm  20.0133 -7.19855 9.32406
RightForeArm  21.4635 55.4655 14.6047
RightHand  -0.107303 4.83302 -1.51559
LeftUpLeg  11.2992 7.20804 -7.6488
LeftLeg  10.4829 13.738 -1.36982
LeftFoot  -17.3371 -0.177991 -5.37885
LeftToes  2.52163e-011 5.65494e-011 -1.09494e-012
